<!--
AnimCJK 2016-2018 Copyright Francois Mizessyn - https://github.com/parsimonhi/animCJK
Derived from:
    MakeMeAHanzi project - https://github.com/skishore/makemeahanzi
    Arphic PL KaitiM GB font
    Arphic PL UKai font
You can redistribute and/or modify this file under the terms of the Arphic Public License
as published by Arphic Technology Co., Ltd.
You should have received a copy of this license along with this file.
If not, see http://ftp.gnu.org/non-gnu/chinese-fonts-truetype/LICENSE.
-->
<svg id="z1-23014" class="acjk" version="1.1" viewBox="0 0 1024 1024" xmlns="http://www.w3.org/2000/svg">
<style>
<![CDATA[
@keyframes zk {
    to {
        stroke-dashoffset:0;
    }
}
svg.acjk path {
    --t:0.8s;
    animation:zk var(--t) linear forwards var(--d);
    stroke-dasharray:3337;
    stroke-dashoffset:3339;
    stroke-width:128;
    stroke-linecap:round;
    fill:none;
    stroke:#000;
}
svg.acjk path[id] {fill:#ccc;}
]]>
</style>
<path id="z1-23014d1" d="M545 404Q587 428 643 467Q659 477 668 478Q675 477 680 466Q684 456 675 428Q663 397 578 367L533 351Q505 339 464 327Q448 323 446 307Q459 279 472 250L485 218Q512 131 530 111Q542 92 536 80Q524 64 483 36Q465 23 450 31Q437 37 446 52Q467 85 434 224L426 255Q414 294 406 305Q397 327 419 343Q465 359 506 382L545 404 Z"/>
<path id="z1-23014d2" d="M506 382Q502 383 500 387Q475 411 387 451Q374 455 384 461Q459 474 545 404L578 367Q630 262 649 237L650 195Q623 162 599 165Q586 166 588 180Q591 190 591 203L583 240L583 241Q577 271 533 351L506 382 Z"/>
<path id="z1-23014d3" d="M649 237Q719 233 804 234Q876 237 883 226Q887 216 872 202Q817 160 754 177Q708 184 650 195L591 203Q498 213 485 218L434 224Q316 236 184 251Q165 252 179 269Q192 282 209 288Q230 294 245 289Q330 267 426 255L472 250Q521 243 583 240L649 237 Z"/>
<path id="z1-23014d4" d="M336 847Q367 869 408 905Q421 917 430 917Q437 917 442 907Q446 898 441 873Q435 851 416 840Q400 830 367 813L325 793Q297 778 259 762Q244 755 244 741Q260 702 277 662L292 624Q323 527 342 506Q352 488 348 478Q338 462 301 437Q285 425 271 431Q261 437 267 450Q285 486 248 631L236 672Q212 732 208 738Q199 757 217 772Q262 794 300 821L336 847 Z"/>
<path id="z1-23014d5" d="M300 821L300 822Q258 864 178 902Q165 909 176 913Q245 919 336 847L367 813Q385 785 440 668Q447 644 461 624Q473 609 459 599Q422 559 396 563Q383 566 386 580Q390 593 391 606L388 632Q387 639 385 651Q375 715 325 793L300 821 Z"/>
<path id="z1-23014d6" d="M391 606Q342 613 292 624L248 631Q194 638 138 647Q119 650 87 645Q77 645 73 653Q69 665 77 673Q95 689 120 709Q129 713 140 708Q183 686 231 673Q232 672 236 672L277 662Q362 637 388 632L391 606 Z"/>
<path id="z1-23014d7" d="M667 821Q725 858 813 930Q837 951 853 950Q872 950 873 932Q874 913 848 869Q832 838 697 785L652 767Q615 751 587 744Q563 740 576 717Q589 680 600 650L614 614Q638 545 648 532Q655 523 652 515Q646 502 609 479Q599 472 588 476Q576 480 585 494Q597 518 569 621L558 660Q545 697 530 722Q523 738 525 750Q528 760 544 762Q584 774 625 797L667 821 Z"/>
<path id="z1-23014d8" d="M625 797Q583 836 491 878Q478 884 488 889Q563 904 664 824Q664 821 667 821L697 785Q712 767 762 667Q769 645 784 627L774 587Q746 559 724 560Q711 561 714 576Q717 586 717 598L711 634Q710 638 708 645Q693 703 652 767L625 797 Z"/>
<path id="z1-23014d9" d="M784 627Q838 621 930 622Q946 621 951 614Q955 604 941 592Q890 556 826 576Q802 580 774 587L717 598Q701 598 614 614L569 621Q526 625 482 633Q464 634 478 649Q490 661 506 665Q512 665 558 660L600 650Q666 635 711 634L784 627 Z"/>
</svg>
