<svg xmlns="http://www.w3.org/2000/svg" version="1.1" viewBox="0 0 1024 1024">
  <style>
    <![CDATA[
    path {
      fill: none;
      stroke: black;
      stroke-width: 2;
    }
    ]]>
  </style>
  <path id="z1-30204d1" d="M492 98Q538 144 577 158Q593 159 602 144Q608 129 603 110Q584 65 502 53Q483 49 473 55Q466 56 470 70Q473 83 492 98 Z"/>
  <path id="z1-30204d2" d="M360 275Q387 284 491 270Q797 224 813 213Q823 206 818 196Q812 183 783 175Q756 168 655 195Q505 229 348 239L360 275 Z"/>
  <path id="z1-30204d3" d="M272 557Q233 725 122 899Q118 905 116 911Q113 921 123 919Q150 915 226 801Q245 768 264 730Q328 576 353 314Q356 296 360 275L348 239Q308 208 286 216Q274 223 281 235Q302 265 298 322Q280 514 279 523Q278 524 278 525L272 557 Z"/>
  <path id="z1-30204d4" d="M127 372Q166 427 199 447Q212 451 223 439Q230 427 229 411Q222 369 143 336Q127 329 118 332Q112 333 113 345Q113 357 127 372 Z"/>
  <path id="z1-30204d5" d="M278 525Q80 615 51 617Q39 620 39 630Q39 642 48 648Q70 660 103 672Q113 673 122 665Q137 647 272 557L278 525 Z"/>
  <path id="z1-30204d6" d="M434 371Q425 362 401 351Q391 347 380 350Q373 354 378 367Q396 430 397 453Q397 685 371 780Q356 834 390 878Q400 891 411 880Q423 865 424 839L428 800Q429 782 430 762Q443 411 447 406L434 371 Z"/>
  <path id="z1-30204d7" d="M717 826Q748 866 771 903Q781 922 792 921Q810 920 826 885Q845 845 841 795Q831 671 825 439Q824 405 841 382Q851 369 841 357Q822 336 765 311Q746 301 729 311Q594 365 434 371L447 406Q466 406 699 365Q735 358 752 372Q783 400 766 784Q765 788 765 793Q761 814 741 804Q732 797 720 792L717 826 Z"/>
  <path id="z1-30204d8" d="M611 516Q719 494 722 491Q729 484 726 478Q720 468 697 462Q675 456 621 474L568 488Q528 495 479 498Q451 502 471 517Q498 532 566 524L611 516 Z"/>
  <path id="z1-30204d9" d="M594 581Q601 547 611 516L621 474Q622 465 626 460Q635 442 622 427Q597 411 580 405Q568 401 562 407Q555 411 560 424Q570 440 568 488L566 524Q565 555 562 590L594 581 Z"/>
  <path id="z1-30204d10" d="M517 597Q508 593 485 588Q475 587 472 590Q468 594 474 607Q493 644 506 708Q507 727 519 739Q532 755 537 744Q538 737 540 727L538 700Q528 636 527 618L517 597 Z"/>
  <path id="z1-30204d11" d="M665 691Q683 639 701 623Q720 604 702 590Q686 580 664 564Q649 555 633 564Q615 574 594 581L562 590Q541 591 517 597L527 618Q531 618 615 605Q633 602 637 609Q640 612 624 680L665 691 Z"/>
  <path id="z1-30204d12" d="M540 727Q549 727 561 726Q595 719 670 714Q679 713 680 706Q680 700 665 691L624 680Q618 679 613 681Q571 691 538 700L540 727 Z"/>
  <path id="z1-30204d13" d="M424 839Q433 839 441 838Q529 825 717 826L720 792Q713 785 707 781Q689 768 654 774Q530 793 428 800L424 839 Z"/>
</svg>
