<svg xmlns="http://www.w3.org/2000/svg" version="1.1" viewBox="0 0 1024 1024">
  <style>
    <![CDATA[
    path {
      fill: none;
      stroke: black;
      stroke-width: 2;
    }
    ]]>
  </style>
  <path id="z1-35489d1" d="M291 146Q337 197 372 209Q388 210 398 196Q405 181 400 162Q391 137 371 123Q317 93 282 100Q276 100 273 103Q266 104 270 118Q273 131 291 146 Z"/>
  <path id="z1-35489d2" d="M71 336Q58 337 56 346Q53 356 69 368Q111 395 153 379Q264 334 393 311Q411 307 411 300Q411 287 392 278Q364 268 340 274Q165 322 71 336 Z"/>
  <path id="z1-35489d3" d="M183 445Q152 455 177 467Q213 480 292 455Q316 446 343 439Q359 432 363 430Q370 421 364 414Q357 404 329 402Q308 401 238 430Q211 437 183 445 Z"/>
  <path id="z1-35489d4" d="M195 549Q162 559 189 571Q231 586 278 566Q312 554 349 542Q365 536 367 534Q374 525 369 518Q360 508 333 506Q317 506 245 535Q221 542 195 549 Z"/>
  <path id="z1-35489d5" d="M178 665Q165 659 136 656Q124 653 121 658Q114 665 123 680Q153 738 171 833Q175 861 192 881Q210 903 215 887Q222 866 214 824Q213 820 212 818L206 785Q193 715 192 692L178 665 Z"/>
  <path id="z1-35489d6" d="M338 761Q353 700 372 681Q391 656 369 643Q350 633 324 618Q306 609 263 636Q203 657 178 665L192 692L272 671Q293 665 298 673Q301 676 290 754L338 761 Z"/>
  <path id="z1-35489d7" d="M212 818Q211 818 213 818Q253 803 344 786Q354 783 354 775Q354 769 338 761L290 754Q284 755 280 757Q240 773 206 785L212 818 Z"/>
  <path id="z1-35489d8" d="M689 363Q714 354 744 347Q790 332 797 325Q806 316 800 308Q793 296 762 291Q729 287 682 310L636 328Q534 361 451 377Q414 386 442 401Q488 422 542 405Q591 390 644 376L689 363 Z"/>
  <path id="z1-35489d9" d="M583 581Q611 574 638 568Q645 568 651 559Q651 550 635 544Q604 534 584 543L540 559Q534 560 481 577L434 589Q409 593 381 599Q362 603 378 614Q399 626 434 621L479 608Q504 599 540 591L583 581 Z"/>
  <path id="z1-35489d10" d="M481 577Q482 567 483 558Q489 528 485 522Q472 510 447 501Q432 494 423 499Q414 505 420 515Q424 519 434 589L434 621Q434 711 386 802Q383 805 383 809Q382 818 389 815Q416 809 450 734Q450 731 452 729Q474 671 479 608L481 577 Z"/>
  <path id="z1-35489d11" d="M540 591Q540 694 532 724Q523 751 542 793Q546 805 552 807Q556 811 561 806Q565 803 573 789Q580 773 579 751Q579 732 583 581L584 543Q585 515 592 495Q599 485 596 476Q592 469 554 446Q538 434 524 445Q520 448 525 459Q538 477 538 496Q539 523 540 554Q540 555 540 559L540 591 Z"/>
  <path id="z1-35489d12" d="M729 684Q781 804 869 882Q933 927 962 924Q983 918 973 890Q967 847 967 719Q966 698 959 698Q953 699 948 717Q900 813 885 806Q873 802 855 786Q804 729 762 647L742 596Q717 524 689 363L682 310Q672 207 683 140Q698 94 636 71Q597 55 575 62Q553 69 564 91Q615 137 615 174Q625 256 636 328L644 376Q668 520 713 643L729 684 Z"/>
  <path id="z1-35489d13" d="M713 643Q695 668 675 691Q644 724 629 744Q622 760 636 754Q664 748 729 684L762 647Q792 608 814 566Q842 512 869 470Q879 457 864 442Q816 409 793 414Q781 417 785 432Q795 498 742 596L713 643 Z"/>
  <path id="z1-35489d14" d="M767 178Q792 200 819 226Q832 239 849 238Q859 237 865 223Q869 208 860 179Q854 160 824 147Q755 122 740 129Q736 133 737 146Q740 156 767 178 Z"/>
</svg>
